<?xml version="1.0" encoding="UTF-8"?>
<svg id="Layer_1" data-name="Layer 1" xmlns="http://www.w3.org/2000/svg" viewBox="0 0 1269.11 197">
  <defs>
    <style>
      .cls-1 {
        fill: #000;
        stroke-width: 0px;
      }
    </style>
  </defs>
  <path class="cls-1" d="M1269.11,143.33h-17.02v-36.79h-55.87v36.79h-17.02V53.67h17.02s0,35.84,0,35.84h55.87v-35.84h17.02s0,89.66,0,89.66Z"/>
  <path class="cls-1" d="M420.89,53.67v18.92h-69.62v16.81h65.71v17.03h-65.71v17.99h69.62v18.92h-86.65V53.67h86.65Z"/>
  <path class="cls-1" d="M1067.83,143.33h-17.03v-29.81h-58.63v29.81h-17.03v-67.9c0-12.02,9.74-21.76,21.76-21.76h49.17c12.02,0,21.76,9.74,21.76,21.76v67.9ZM997.85,72.59c-3.13,0-5.68,2.54-5.68,5.68v18.23h58.63v-18.23c0-3.13-2.54-5.68-5.67-5.68h-47.28Z"/>
  <path class="cls-1" d="M1166.68,53.67v18.92h-35.19v70.74h-17.03v-70.74h-36.13v-18.92h88.35Z"/>
  <path class="cls-1" d="M733,143.33h-18.56l-56.67-66.61v66.61h-17.03V53.67l20.37.02,54.86,64.35V53.67h17.03s0,89.66,0,89.66Z"/>
  <path class="cls-1" d="M631.2,101.7c0,22.99-18.89,41.62-41.88,41.62h-25.88c-23.37,0-42.32-18.95-42.32-42.32v-5.03c0-23.37,18.95-42.32,42.32-42.32h25.88c22.99,0,41.88,18.63,41.88,41.62v6.41ZM538.15,98.87c0,14.11,11.43,25.54,25.54,25.54h24.94c14.11,0,25.54-11.43,25.54-25.54v-.74c0-14.11-11.43-25.54-25.54-25.54h-24.94c-14.11,0-25.54,11.44-25.54,25.54v.74Z"/>
  <path class="cls-1" d="M843.61,101.71c0,22.99-18.89,41.62-41.88,41.62h-54.56V53.67h54.56c22.99,0,41.88,18.63,41.88,41.62v6.42ZM764.2,124.41h36.84c14.11,0,25.54-11.43,25.54-25.54v-.74c0-14.11-11.44-25.54-25.54-25.54h-36.84v51.82Z"/>
  <path class="cls-1" d="M478.22,93.78l27.78-40.12h20.81l-40.08,57.57v32.09s-17.03,0-17.03,0v-32.09s-40.08-57.57-40.08-57.57h20.81l27.78,40.12Z"/>
  <path class="cls-1" d="M962.69,53.67v89.66h-17.03v-51.4l-30.69,51.4h-13.35l-30.69-51.4v51.4h-17.03V53.67l16.35.02,38.04,65.09,38.05-65.09,16.35-.02Z"/>
  <path class="cls-1" d="M234.12,53.67h64.16c11.49,0,20.81,9.32,20.81,20.81v4.94c0,6.42-3.36,12.05-8.42,15.23,6.46,4.83,10.64,12.54,10.64,21.23v.96c0,14.63-11.86,26.49-26.49,26.49h-60.7V53.67ZM251.15,124.41h44.14c4.97,0,8.99-4.03,8.99-8.99s-4.03-8.99-8.99-8.99h-44.14v17.99ZM251.15,89.39h42.51c4.64,0,8.4-3.76,8.4-8.4s-3.76-8.4-8.4-8.4h-42.51v16.81Z"/>
  <path class="cls-1" d="M125.43,0c37.95,0,61.78,35.21,53.07,77.08-1.79,9.23-4.51,15.69-9.3,22.13,2.1,3.42,3.7,6.8,4.88,10.15,8.99,22.23,7.91,46.38-2.58,63.01-9.55,15.14-26.15,24.43-46.06,24.43-5.82,0-101.36.19-101.36.19L.35,175.68l.51-.96,14.25-27.51c20.2-8.93,63.86-29.19,91.42-48.11.21-.14.43-.29.66-.45-.64-.44-1.28-.89-1.94-1.34-27.37-18.78-69.48-38.12-89.7-47.06L0,20.23l1.13-1.02c.07-.06.14-.11.21-.16L22.52,0h102.91ZM175.58,136.6c-2.17,11.56-7.82,22.61-18.71,29.86-8.94,7.12-20.11,10.77-31.5,10.77-8.92,0-39.47.05-67.8.1-14.16.02-27.77.05-37.83.07-4.29,0-7.94.01-10.71.02l16.78,15.07c10.53,0,32.1-.05,52.65-.1,21.12-.05,41.16-.1,46.98-.1,18.43,0,33.56-8.55,42.24-22.32,5.71-9.06,8.7-20.48,7.91-33.37ZM137.67,128.99c-9.39,6.54-20.68,13.35-34.15,20.53-3.73,1.99-7.57,3.91-11.49,5.85h26.94c7.15,0,13.39-.94,18.61-2.81,2.85-9.23,2.46-17.23.09-23.57ZM125.61,112.79c-9.37,6.84-20.64,13.86-33.65,20.96-12.63,6.9-25.66,13.46-37.88,19.36h32.33c5.19-2.57,10.18-5.03,14.98-7.58,13.66-7.28,24.99-14.14,34.32-20.69-2.31-4.09-5.66-8-10.11-12.05ZM18.82,46.76c20.45,9.06,61.55,28,88.98,46.83,7.61,5.22,14.13,9.95,19.43,14.6,6,5.26,10.56,10.49,13.43,16.36,3.21,6.56,4.37,14.69,2.61,23.85,4.65-3.69,10.62-10.86,10.62-22.33,0-7.81-4.07-15.53-11.24-23.4-7.16-7.85-17.15-15.59-28.47-23.4C92.9,64.57,42.22,39.85,7.67,25.22l11.16,21.54ZM55.79,21.84c11.3,5.12,19.66,9.06,31.9,15.08h31.28c12.07,0,21.94,2.6,28.84,8.09,6.98,5.55,10.6,13.81,10.6,24.36,0,3.53-.83,7.13-2.38,10.76,4.82,4.69,7.98,7.88,11.82,13.1,4.71-8,6.56-15.65,6.56-23.38,0-11.55-2.99-23.54-10.63-32.6-7.58-8.99-19.99-15.4-39.5-15.4H55.79ZM91.65,41.44c3.7,1.86,7.34,3.74,10.81,5.59,14.52,7.73,26.46,15.02,36.18,21.98,3.24-6.63,4.11-13.86,2.48-23-5.56-2.98-12.97-4.57-22.15-4.57h-27.33Z"/>
</svg>