<?xml version="1.0" encoding="UTF-8" standalone="no"?>
<svg
   id="Ebene_2"
   viewBox="0 0 206.73 56.259999"
   version="1.1"
   sodipodi:docname="mcml.svg"
   width="206.73"
   height="56.259998"
   inkscape:version="1.2.2 (b0a8486541, 2022-12-01)"
   xmlns:inkscape="http://www.inkscape.org/namespaces/inkscape"
   xmlns:sodipodi="http://sodipodi.sourceforge.net/DTD/sodipodi-0.dtd"
   xmlns="http://www.w3.org/2000/svg"
   xmlns:svg="http://www.w3.org/2000/svg">
  <sodipodi:namedview
     id="namedview1289"
     pagecolor="#ffffff"
     bordercolor="#000000"
     borderopacity="0.25"
     inkscape:showpageshadow="2"
     inkscape:pageopacity="0.0"
     inkscape:pagecheckerboard="0"
     inkscape:deskcolor="#d1d1d1"
     showgrid="false"
     inkscape:zoom="2.5447492"
     inkscape:cx="191.17798"
     inkscape:cy="52.460966"
     inkscape:window-width="3774"
     inkscape:window-height="1531"
     inkscape:window-x="0"
     inkscape:window-y="0"
     inkscape:window-maximized="1"
     inkscape:current-layer="Ebene_2" />
  <defs
     id="defs1188">
    <style
       id="style1186">.cls-1{fill:#010000;}</style>
  </defs>
  <g
     id="g1224"
     transform="translate(-38.369999,-42.11)">
    <g
       id="g1194">
      <rect
         x="214.47"
         y="65.080002"
         width="30.629999"
         height="7.6599998"
         id="rect1190" />
      <rect
         x="206.82001"
         y="42.110001"
         width="7.6599998"
         height="22.969999"
         id="rect1192" />
    </g>
    <g
       id="g1204">
      <rect
         x="38.369999"
         y="49.77"
         width="7.6599998"
         height="22.969999"
         id="rect1196" />
      <rect
         x="46.02"
         y="42.110001"
         width="15.31"
         height="7.6599998"
         id="rect1198" />
      <polygon
         points="61.34,49.77 61.34,72.74 68.99,72.74 68.99,49.77 84.31,49.77 84.31,42.11 68.99,42.11 68.99,49.77 "
         id="polygon1200" />
      <rect
         x="84.309998"
         y="49.77"
         width="7.6599998"
         height="22.969999"
         id="rect1202" />
    </g>
    <g
       id="g1210">
      <polygon
         points="107.28,72.74 137.9,72.74 137.9,65.08 107.28,65.08 107.28,49.77 99.62,49.77 99.62,65.08 107.28,65.08 "
         id="polygon1206" />
      <rect
         x="107.28"
         y="42.110001"
         width="30.629999"
         height="7.6599998"
         id="rect1208" />
    </g>
    <g
       id="g1222">
      <rect
         x="145.56"
         y="49.77"
         width="7.6599998"
         height="22.969999"
         id="rect1212" />
      <rect
         x="153.22"
         y="42.110001"
         width="15.31"
         height="7.6599998"
         id="rect1214" />
      <rect
         x="168.53"
         y="49.77"
         width="7.6599998"
         height="22.969999"
         id="rect1216" />
      <rect
         x="191.5"
         y="49.77"
         width="7.6599998"
         height="22.969999"
         id="rect1218" />
      <rect
         x="176.19"
         y="42.110001"
         width="15.31"
         height="7.6599998"
         id="rect1220" />
    </g>
  </g>
  <g
     id="g1286"
     transform="translate(-38.369999,-42.11)">
    <path
       class="cls-1"
       d="m 46.3,95.71 h -0.92 v -5.14 l 0.11,-2.16 h -0.01 l -2.64,7.3 h -0.83 l -2.64,-7.3 h -0.01 l 0.11,2.16 v 5.14 h -0.92 v -8.18 h 1.49 l 1.76,4.97 0.61,2.04 h 0.02 l 0.62,-2.03 1.75,-4.98 h 1.49 v 8.18 z"
       id="path1226" />
    <path
       class="cls-1"
       d="m 53.7,89.51 v 6.2 h -0.85 l -0.06,-0.94 c -0.43,0.74 -1.2,1.07 -2.17,1.07 -1.2,0 -2.23,-0.63 -2.23,-2.27 v -4.05 h 0.97 v 3.79 c 0,1.28 0.56,1.66 1.43,1.66 1.03,0 1.94,-0.62 1.94,-2.08 v -3.37 h 0.97 z"
       id="path1228" />
    <path
       class="cls-1"
       d="m 61.04,91.74 v 3.96 h -0.97 v -3.62 c 0,-1.38 -0.66,-1.83 -1.49,-1.83 -0.89,0 -1.88,0.57 -1.88,2.16 v 3.3 h -0.97 v -6.2 h 0.85 l 0.06,0.97 c 0.42,-0.78 1.2,-1.09 2.04,-1.09 1.3,0 2.37,0.76 2.37,2.35 z"
       id="path1230" />
    <path
       class="cls-1"
       d="m 62.76,87.58 c 0,-0.45 0.29,-0.74 0.73,-0.74 0.44,0 0.73,0.3 0.73,0.74 0,0.44 -0.29,0.74 -0.73,0.74 -0.44,0 -0.73,-0.3 -0.73,-0.74 z m 1.21,8.13 H 63 v -6.2 h 0.97 z"
       id="path1232" />
    <path
       class="cls-1"
       d="m 71.07,91.04 -0.92,0.45 c -0.25,-0.79 -0.78,-1.23 -1.62,-1.23 -1.21,0 -1.94,0.88 -1.94,2.35 0,1.47 0.73,2.35 1.94,2.35 0.95,0 1.52,-0.46 1.7,-1.28 l 0.9,0.32 c -0.41,1.14 -1.29,1.82 -2.58,1.82 -1.83,0 -2.94,-1.21 -2.94,-3.22 0,-2.01 1.11,-3.22 2.94,-3.22 1.25,0 2.06,0.63 2.51,1.65 z"
       id="path1234" />
    <path
       class="cls-1"
       d="m 77.92,91.74 v 3.96 h -0.97 v -3.62 c 0,-1.38 -0.66,-1.83 -1.49,-1.83 -0.89,0 -1.88,0.58 -1.88,2.17 v 3.28 h -0.97 v -9.04 h 0.97 v 3.78 c 0.43,-0.74 1.15,-1.05 1.98,-1.05 1.3,0 2.37,0.76 2.37,2.35 z"
       id="path1236" />
    <path
       class="cls-1"
       d="m 87.19,95.83 c -2.28,0 -3.72,-1.62 -3.72,-4.21 0,-2.59 1.46,-4.21 3.69,-4.21 1.55,0 2.6,0.67 3.11,1.91 l -0.96,0.46 c -0.35,-0.94 -1.01,-1.44 -2.08,-1.44 -1.64,0 -2.75,1.21 -2.75,3.28 0,2.07 1.03,3.28 2.7,3.28 1.07,0 1.91,-0.56 2.26,-1.66 l 0.97,0.37 c -0.51,1.4 -1.72,2.22 -3.23,2.22 z"
       id="path1238" />
    <path
       class="cls-1"
       d="m 97.03,92.98 h -4.58 c 0.12,1.25 0.86,1.98 1.98,1.98 0.89,0 1.49,-0.32 1.71,-0.92 l 0.81,0.43 c -0.46,0.84 -1.21,1.35 -2.53,1.35 -1.83,0 -2.94,-1.21 -2.94,-3.22 0,-2.01 1.03,-3.22 2.87,-3.22 1.84,0 2.72,1.3 2.72,2.9 0,0.29 -0.02,0.52 -0.05,0.69 z M 92.46,92.1 h 3.68 c -0.13,-1.14 -0.75,-1.85 -1.79,-1.85 -1.04,0 -1.75,0.68 -1.89,1.85 z"
       id="path1240" />
    <path
       class="cls-1"
       d="m 104,91.74 v 3.96 h -0.97 v -3.62 c 0,-1.38 -0.66,-1.83 -1.49,-1.83 -0.89,0 -1.88,0.57 -1.88,2.16 v 3.3 h -0.97 v -6.2 h 0.85 l 0.06,0.97 c 0.42,-0.78 1.2,-1.09 2.04,-1.09 1.3,0 2.37,0.76 2.37,2.35 z"
       id="path1242" />
    <path
       class="cls-1"
       d="m 109.59,95.27 c -0.38,0.35 -0.9,0.56 -1.57,0.56 -0.9,0 -1.68,-0.46 -1.69,-1.66 v -3.8 h -1.21 v -0.86 h 1.21 v -1.49 l 0.97,-0.27 v 1.76 h 2.25 v 0.86 H 107.3 V 94 c 0,0.61 0.38,0.9 0.91,0.9 0.44,0 0.75,-0.17 1.03,-0.46 l 0.34,0.83 z"
       id="path1244" />
    <path
       class="cls-1"
       d="m 115.88,92.98 h -4.58 c 0.12,1.25 0.86,1.98 1.98,1.98 0.89,0 1.49,-0.32 1.71,-0.92 l 0.81,0.43 c -0.46,0.84 -1.21,1.35 -2.53,1.35 -1.83,0 -2.94,-1.21 -2.94,-3.22 0,-2.01 1.03,-3.22 2.87,-3.22 1.84,0 2.72,1.3 2.72,2.9 0,0.29 -0.02,0.52 -0.05,0.69 z m -4.57,-0.88 h 3.68 c -0.13,-1.14 -0.75,-1.85 -1.79,-1.85 -1.04,0 -1.75,0.68 -1.89,1.85 z"
       id="path1246" />
    <path
       class="cls-1"
       d="m 121.07,89.51 -0.19,0.97 c -0.18,-0.1 -0.45,-0.16 -0.77,-0.16 -0.73,0 -1.6,0.66 -1.6,2.04 v 3.35 h -0.97 v -6.2 h 0.79 l 0.13,1.02 c 0.34,-0.76 1,-1.14 1.94,-1.14 0.21,0 0.49,0.03 0.67,0.12 z"
       id="path1248" />
    <path
       class="cls-1"
       d="m 127.09,89.51 h 2.03 v 0.86 h -2.03 v 5.34 h -0.97 v -5.34 h -1.21 v -0.86 h 1.21 v -1.04 c 0,-1.1 0.66,-1.87 1.99,-1.87 0.42,0 0.81,0.1 1.03,0.29 l -0.25,0.8 c -0.19,-0.12 -0.41,-0.19 -0.69,-0.19 -0.71,0 -1.11,0.32 -1.11,1.07 z"
       id="path1250" />
    <path
       class="cls-1"
       d="m 135.51,92.61 c 0,2.01 -1.11,3.22 -2.94,3.22 -1.83,0 -2.94,-1.21 -2.94,-3.22 0,-2.01 1.11,-3.22 2.94,-3.22 1.83,0 2.94,1.21 2.94,3.22 z m -4.91,0 c 0,1.47 0.74,2.37 1.97,2.37 1.23,0 1.97,-0.89 1.97,-2.37 0,-1.48 -0.74,-2.37 -1.97,-2.37 -1.23,0 -1.97,0.89 -1.97,2.37 z"
       id="path1252" />
    <path
       class="cls-1"
       d="m 140.68,89.51 -0.19,0.97 c -0.18,-0.1 -0.45,-0.16 -0.77,-0.16 -0.73,0 -1.6,0.66 -1.6,2.04 v 3.35 h -0.97 v -6.2 h 0.79 l 0.13,1.02 c 0.34,-0.76 1,-1.14 1.94,-1.14 0.21,0 0.49,0.03 0.67,0.12 z"
       id="path1254" />
    <path
       class="cls-1"
       d="m 153.41,95.71 h -0.92 v -5.14 l 0.11,-2.16 h -0.01 l -2.64,7.3 h -0.83 l -2.64,-7.3 h -0.01 l 0.11,2.16 v 5.14 h -0.92 v -8.18 h 1.49 l 1.76,4.97 0.61,2.04 h 0.02 l 0.62,-2.03 1.75,-4.98 h 1.49 v 8.18 z"
       id="path1256" />
    <path
       class="cls-1"
       d="m 161.01,94.93 -0.06,0.78 c -0.17,0.06 -0.42,0.12 -0.73,0.12 -0.59,0 -0.98,-0.22 -1.09,-0.92 -0.39,0.58 -1.18,0.92 -1.96,0.92 -1.14,0 -2.06,-0.54 -2.06,-1.66 0,-0.93 0.8,-1.66 2.37,-1.93 l 1.62,-0.27 v -0.35 c 0,-0.82 -0.51,-1.36 -1.42,-1.36 -0.8,0 -1.41,0.4 -1.74,1.18 l -0.72,-0.53 c 0.32,-0.92 1.28,-1.51 2.45,-1.51 1.38,0 2.39,0.67 2.39,2.11 v 3.05 c 0,0.3 0.12,0.45 0.46,0.45 0.16,0 0.34,-0.02 0.49,-0.06 z m -1.92,-1.3 v -0.86 l -1.36,0.26 c -1.07,0.2 -1.62,0.56 -1.62,1.14 0,0.52 0.41,0.79 1.11,0.79 0.97,0 1.87,-0.52 1.87,-1.34 z"
       id="path1258" />
    <path
       class="cls-1"
       d="m 167.25,91.04 -0.92,0.45 c -0.25,-0.79 -0.78,-1.23 -1.62,-1.23 -1.21,0 -1.94,0.88 -1.94,2.35 0,1.47 0.73,2.35 1.94,2.35 0.95,0 1.52,-0.46 1.7,-1.28 l 0.9,0.32 c -0.41,1.14 -1.29,1.82 -2.58,1.82 -1.83,0 -2.94,-1.21 -2.94,-3.22 0,-2.01 1.11,-3.22 2.94,-3.22 1.25,0 2.06,0.63 2.51,1.65 z"
       id="path1260" />
    <path
       class="cls-1"
       d="m 174.1,91.74 v 3.96 h -0.97 v -3.62 c 0,-1.38 -0.66,-1.83 -1.49,-1.83 -0.89,0 -1.88,0.58 -1.88,2.17 v 3.28 h -0.97 v -9.04 h 0.97 v 3.78 c 0.42,-0.74 1.15,-1.05 1.98,-1.05 1.3,0 2.37,0.76 2.37,2.35 z"
       id="path1262" />
    <path
       class="cls-1"
       d="m 175.82,87.58 c 0,-0.45 0.29,-0.74 0.73,-0.74 0.44,0 0.73,0.3 0.73,0.74 0,0.44 -0.29,0.74 -0.73,0.74 -0.44,0 -0.73,-0.3 -0.73,-0.74 z m 1.21,8.13 h -0.97 v -6.2 h 0.97 z"
       id="path1264" />
    <path
       class="cls-1"
       d="m 184.37,91.74 v 3.96 h -0.97 v -3.62 c 0,-1.38 -0.66,-1.83 -1.49,-1.83 -0.89,0 -1.88,0.57 -1.88,2.16 v 3.3 h -0.97 v -6.2 h 0.85 l 0.06,0.97 c 0.43,-0.78 1.2,-1.09 2.04,-1.09 1.3,0 2.37,0.76 2.37,2.35 z"
       id="path1266" />
    <path
       class="cls-1"
       d="m 191.49,92.98 h -4.58 c 0.12,1.25 0.86,1.98 1.98,1.98 0.89,0 1.49,-0.32 1.71,-0.92 l 0.81,0.43 c -0.46,0.84 -1.21,1.35 -2.53,1.35 -1.83,0 -2.94,-1.21 -2.94,-3.22 0,-2.01 1.03,-3.22 2.87,-3.22 1.84,0 2.72,1.3 2.72,2.9 0,0.29 -0.02,0.52 -0.05,0.69 z m -4.57,-0.88 h 3.68 c -0.13,-1.14 -0.75,-1.85 -1.79,-1.85 -1.04,0 -1.75,0.68 -1.89,1.85 z"
       id="path1268" />
    <path
       class="cls-1"
       d="m 202.79,94.78 v 0.93 h -5.56 v -8.18 h 0.97 v 7.25 z"
       id="path1270" />
    <path
       class="cls-1"
       d="m 209.05,92.98 h -4.58 c 0.12,1.25 0.86,1.98 1.98,1.98 0.89,0 1.49,-0.32 1.71,-0.92 l 0.81,0.43 c -0.46,0.84 -1.21,1.35 -2.53,1.35 -1.83,0 -2.94,-1.21 -2.94,-3.22 0,-2.01 1.03,-3.22 2.87,-3.22 1.84,0 2.72,1.3 2.72,2.9 0,0.29 -0.02,0.52 -0.05,0.69 z m -4.57,-0.88 h 3.68 c -0.13,-1.14 -0.75,-1.85 -1.79,-1.85 -1.04,0 -1.75,0.68 -1.89,1.85 z"
       id="path1272" />
    <path
       class="cls-1"
       d="m 216.17,94.93 -0.06,0.78 c -0.17,0.06 -0.42,0.12 -0.73,0.12 -0.59,0 -0.98,-0.22 -1.09,-0.92 -0.39,0.58 -1.18,0.92 -1.96,0.92 -1.14,0 -2.06,-0.54 -2.06,-1.66 0,-0.93 0.8,-1.66 2.37,-1.93 l 1.62,-0.27 v -0.35 c 0,-0.82 -0.51,-1.36 -1.42,-1.36 -0.8,0 -1.41,0.4 -1.74,1.18 l -0.72,-0.53 c 0.32,-0.92 1.28,-1.51 2.45,-1.51 1.38,0 2.39,0.67 2.39,2.11 v 3.05 c 0,0.3 0.12,0.45 0.46,0.45 0.16,0 0.34,-0.02 0.49,-0.06 z m -1.92,-1.3 v -0.86 l -1.36,0.26 c -1.07,0.2 -1.62,0.56 -1.62,1.14 0,0.52 0.41,0.79 1.11,0.79 0.97,0 1.87,-0.52 1.87,-1.34 z"
       id="path1274" />
    <path
       class="cls-1"
       d="m 220.87,89.51 -0.19,0.97 c -0.18,-0.1 -0.45,-0.16 -0.77,-0.16 -0.73,0 -1.6,0.66 -1.6,2.04 v 3.35 h -0.97 v -6.2 h 0.79 l 0.13,1.02 c 0.34,-0.76 1,-1.14 1.94,-1.14 0.21,0 0.49,0.03 0.67,0.12 z"
       id="path1276" />
    <path
       class="cls-1"
       d="m 227.37,91.74 v 3.96 h -0.97 v -3.62 c 0,-1.38 -0.66,-1.83 -1.49,-1.83 -0.89,0 -1.88,0.57 -1.88,2.16 v 3.3 h -0.97 v -6.2 h 0.85 l 0.06,0.97 c 0.42,-0.78 1.2,-1.09 2.04,-1.09 1.3,0 2.37,0.76 2.37,2.35 z"
       id="path1278" />
    <path
       class="cls-1"
       d="m 229.08,87.58 c 0,-0.45 0.29,-0.74 0.73,-0.74 0.44,0 0.73,0.3 0.73,0.74 0,0.44 -0.29,0.74 -0.73,0.74 -0.44,0 -0.73,-0.3 -0.73,-0.74 z m 1.21,8.13 h -0.97 v -6.2 h 0.97 z"
       id="path1280" />
    <path
       class="cls-1"
       d="m 237.63,91.74 v 3.96 h -0.97 v -3.62 c 0,-1.38 -0.66,-1.83 -1.49,-1.83 -0.89,0 -1.88,0.57 -1.88,2.16 v 3.3 h -0.97 v -6.2 h 0.85 l 0.06,0.97 c 0.42,-0.78 1.2,-1.09 2.04,-1.09 1.3,0 2.37,0.76 2.37,2.35 z"
       id="path1282" />
    <path
       class="cls-1"
       d="m 244.98,89.51 v 5.7 c 0,2.13 -1.06,3.16 -3.08,3.16 -1.24,0 -2.27,-0.47 -2.49,-1.52 l 0.92,-0.41 c 0.15,0.71 0.68,1.07 1.71,1.07 1.14,0 1.96,-0.84 1.96,-2.06 v -0.71 c -0.4,0.58 -1.11,0.97 -2.02,0.97 -1.69,0 -2.77,-1.18 -2.77,-3.16 0,-1.98 1.08,-3.16 2.77,-3.16 0.96,0 1.7,0.42 2.08,1.07 l 0.12,-0.94 h 0.8 z M 244,92.62 v -0.15 c 0,-1.36 -0.75,-2.22 -1.91,-2.22 -1.16,0 -1.91,0.89 -1.91,2.29 0,1.4 0.72,2.29 1.91,2.29 1.19,0 1.91,-0.86 1.91,-2.22 z"
       id="path1284" />
  </g>
</svg>
